<svg width="400" height="401" viewBox="0 0 400 401" fill="none" xmlns="http://www.w3.org/2000/svg">
<path d="M238.162 44.1642C240.793 40.9851 241.766 41.0031 244.27 44.2726C247.892 48.987 250.468 54.3517 253.459 59.4455C261.153 72.6135 272.378 79.8387 287.694 80.2903C292.36 80.4348 297.027 80.2723 301.694 80.4348C306.36 80.5974 307.585 81.7895 308.27 86.2692C307.153 86.9195 306.036 87.5517 304.901 88.2019C299.009 90.4418 292.739 91.1282 286.631 92.4829C279.243 94.1266 273.153 97.1973 269.009 103.682C265.063 109.841 262.396 113.743 256.504 123.154C256.504 123.154 253.748 127.561 248.775 132.294C246.973 134.01 245.279 135.383 243.586 134.949C242.378 134.642 241.441 133.522 241.081 132.384C240.558 130.704 241.441 129.332 243.982 124.942C243.982 124.942 246.613 120.39 248.577 114.863C248.793 114.267 249.261 112.876 248.703 111.539C248.595 111.287 248.252 110.492 247.405 109.986C246.703 109.571 246.018 109.571 245.766 109.571C244.504 109.589 243.549 110.329 242.649 111.106C240.486 112.984 239.063 114.755 238.829 115.062C236.108 118.44 236.847 117.356 235.045 119.65C231.982 123.569 230.576 125.809 228.829 125.845C227.838 125.863 227.009 125.412 227.009 125.412C227.009 125.412 226.234 124.996 225.658 124.202C223.91 121.745 226.36 116.127 226.36 116.127C230.162 107.457 236.324 97.9018 242.18 89.5567C246.811 82.9817 246.522 76.2803 245.027 69.1454C243.423 61.5228 240.162 54.4421 238 47.0001C238.36 46.0608 238.865 45.1396 238.162 44.1642Z" fill="white"/>
<path d="M159.982 344.336C156.793 347.1 155.766 347.118 153.387 343.469C149.315 337.237 145.621 330.753 141.531 324.539C135.117 314.785 125.766 309.619 114.342 308.445C108.703 307.867 102.955 308.282 97.2611 307.993C91.5313 307.704 90.3061 306.584 89.9277 302.195C90.9908 301.581 92.0719 300.967 93.1349 300.353C94.7746 300.118 96.1259 299.106 97.8376 298.817C103.099 297.968 108.378 296.993 113.495 295.53C120.054 293.651 125.657 290.364 129.387 284.132C134.108 276.238 139.279 268.634 144.414 260.993C146.432 257.977 148.847 255.285 151.946 253.226C153.675 252.088 155.297 251.763 156.937 252.955C156.937 252.955 157.567 253.461 157.928 254.238C158.757 255.99 155.82 260.235 153.549 263.901C152.594 265.437 150.432 269.031 149.495 273.005C149.369 273.565 148.865 275.841 149.892 277.286C150.216 277.756 150.684 278.171 151.279 278.478C151.279 278.478 151.91 278.785 152.612 278.821C154.378 278.912 156.234 276.636 156.54 276.256C159.153 273.005 162.072 269.989 164.432 266.575C164.432 266.575 167.441 262.601 169.117 262.456C169.603 262.42 170.144 262.51 170.721 262.781C170.721 262.781 171.603 263.179 172.252 264.046C174.072 266.466 171.567 272.301 171.567 272.301C167.369 282.055 158.955 293.94 155.261 299.576C152.901 303.189 151.856 306.982 151.91 311.317C152.054 322.119 157.099 331.548 160.054 341.536C160.072 342.458 160.018 343.397 159.982 344.336Z" fill="white"/>
<path d="M49.7838 153.554C47.4414 151.387 48.1261 149.634 50.3604 147.846C54.9189 144.179 60.1081 141.506 65.0991 138.544C78.7027 130.469 85.8558 118.873 85.6576 102.869C85.6036 98.8591 85.8919 94.8491 85.8558 90.8211C85.8378 87.949 85.2252 83.921 89.982 83.3249C91.3694 83.5778 91.4594 85.1854 92.5225 85.7634C93.6576 86.6666 94.3063 87.8045 94.5766 89.2676C95.1712 92.5913 95.8018 95.8968 96.5766 99.1843C98.054 105.506 99.5495 111.81 103.802 117.031C107.604 121.691 113.045 123.985 117.892 127.146C119.91 128.428 134.144 137.586 139.64 142.554C140.829 143.637 142.432 145.245 142.216 147.106C142.072 148.28 141.207 149.49 140.054 149.905C138.937 150.303 137.874 149.869 136.414 149.201C133.009 147.611 130.468 146.148 130.216 146.004C127.135 144.234 124.072 142.825 120.883 142.301C119.964 142.138 118.054 141.903 116.991 142.933C116.486 143.421 116.216 144.107 116.216 144.107C116.09 144.523 115.946 145.173 116.018 145.931C116.162 147.521 117.153 148.659 118.09 149.598C119.856 151.368 121.477 152.47 123.081 153.554C123.081 153.554 126.126 155.613 130.396 159.226C130.919 159.677 132.162 160.797 132.216 162.17C132.234 162.622 132.126 163.109 131.874 163.633C131.063 165.277 129.351 165.891 127.586 165.638C125.279 165.313 123.081 164.663 120.901 163.742C111.676 159.822 103.586 153.97 95.2793 148.533C91.1892 145.859 87.027 145.209 82.4144 145.426C72.2522 145.913 63.4054 150.953 53.9099 153.717C52.5405 153.644 51.1712 153.608 49.7838 153.554Z" fill="white"/>
<path d="M238.162 44.1642C238.865 45.1396 238.36 46.0608 238.036 47.0001C233.063 51.7145 228.09 56.4109 223.135 61.1435C217.261 66.7611 213.892 73.4263 214.036 81.7895C214.126 87.1001 213.838 92.4468 213.514 97.7573C213.514 97.7573 213.46 107.349 211.189 116.633C211.045 117.211 210.649 118.747 209.333 119.758C209.009 119.993 208.072 120.715 206.811 120.571C205.64 120.426 204.919 119.632 204.757 119.451C203.73 118.277 203.784 116.687 203.82 115.73C203.82 115.73 203.73 111.792 203.658 106.771C203.622 104.404 203.081 102.11 202.216 99.9429C201.478 98.1005 200.216 96.3664 198 96.4387C195.658 96.529 195.442 98.6604 195.027 100.431C194.757 101.569 194.577 102.725 194.36 103.863C193.586 108.198 192.901 112.569 192 116.868C191.694 118.349 191.117 120.011 189.099 120.029C187.333 120.047 186.198 118.891 185.478 117.464C184.162 114.881 183.478 112.117 183.496 109.209C183.55 99.5997 183.387 89.9541 183.784 80.3626C184.054 73.8779 181.766 68.7841 177.568 64.1781C172.559 58.6869 166.721 54.1892 161.081 49.4205C159.351 47.4517 157.55 45.537 156.396 43.1346C159.946 38.962 163.514 42.4843 166.559 43.6584C171.694 45.6273 176.433 48.6619 181.333 51.263C192.883 57.4044 204.487 56.6458 215.928 51.1185C221.153 48.6077 226.054 45.4647 231.189 42.7372C233.802 41.3825 236.433 40.8406 238.162 44.1642Z" fill="white"/>
<path d="M308.306 305.212C309.243 309.113 306.45 309.745 303.802 309.908C297.982 310.251 292.126 310.305 286.288 310.414C274.288 310.649 264 314.586 256.144 324.051C252.072 328.946 249.099 334.51 245.838 339.929C244.613 341.97 243.712 344.354 241.171 345.275C239.802 343.036 238.739 340.561 236.577 338.881C238.811 334.04 240.108 328.874 241.748 323.835C244.396 315.706 244.486 307.831 240 300.154C236.793 294.681 233.892 289.009 231.045 283.337C228.486 278.243 225.748 273.15 225.099 267.369C224.883 265.419 224.649 262.998 227.315 262.167C229.694 261.427 230.234 263.486 231.351 264.877C234.595 268.941 236.414 273.98 240.144 277.683C241.838 279.381 243.91 281.097 246.306 279.67C248.739 278.225 247.532 275.859 246.775 273.764C245.027 268.887 243.333 263.992 241.676 259.078C241.171 257.561 240.991 255.99 242.468 254.798C244.072 253.479 245.622 253.985 247.099 255.014C249.045 256.351 250.631 258.049 252 259.964C257.64 267.785 261.73 276.491 265.946 285.089C267.333 287.907 269.027 290.255 271.081 292.206C273.946 294.934 276.721 296.18 279.658 297.462C287.315 300.822 294.577 301.454 300.631 301.942C302.342 302.087 303.748 302.141 304.631 302.177C305.622 303.514 306.468 304.959 308.306 305.212Z" fill="white"/>
<path d="M308.306 305.212C306.468 304.941 305.621 303.496 304.63 302.195C302.721 297.589 302.054 292.676 301.135 287.835C299.063 276.853 293.766 268.562 283.585 263.161C276.108 259.205 268.811 254.725 262.108 249.433C259.946 247.735 257.964 245.874 256.576 243.49C255.675 241.937 255.369 240.257 256.648 238.776C256.648 238.776 257.063 238.342 257.621 238.089C258.865 237.547 260.324 238.125 260.865 238.36C263.333 239.408 265.423 240.997 266.612 241.846C266.612 241.846 270.811 244.52 276.45 246.362C278.829 247.139 280.937 246.236 282.162 244.249C282.198 244.213 282.486 243.598 282.54 243.038C282.702 241.377 280.684 239.805 278.27 238.089C274.991 235.741 271.802 233.266 268.468 230.99C268.108 230.738 267.063 230.051 266.396 228.769C265.856 227.739 265.693 226.583 265.82 225.427C265.856 225.12 266.018 224.578 266.396 224.108C267.423 222.844 269.513 222.97 270.234 223.025C277.91 223.512 300.234 238.541 300.234 238.541C302.558 240.112 306.09 242.424 311.153 243.147C313.567 243.49 316.108 243.418 318.757 242.894C327.567 241.16 335.639 237.186 344.234 234.82C345.441 234.838 346.648 234.856 347.856 234.856C350.865 237.06 349.675 239.155 347.369 240.708C343.153 243.562 338.865 246.326 334.414 248.783C318.576 257.597 311.351 271.127 311.964 289.099C312.072 292.459 312 295.837 312 299.215C312.018 302.032 311.279 304.326 308.306 305.212Z" fill="white"/>
<path d="M93.1531 300.353C92.0901 300.967 91.009 301.581 89.9459 302.195C87.027 301.328 87.009 298.853 86.9549 296.523C86.8108 288.485 86.4144 280.465 85.4594 272.481C84.1622 261.734 77.7117 254.527 69.5315 248.295C64.7207 244.628 59.5135 241.702 54.2522 238.776C52.7207 237.927 51.1531 236.807 50.7207 234.838C52.0721 232.634 55.0991 232.616 56.4865 230.449C62.7387 232.797 69.0811 234.82 75.5676 236.373C83.1171 238.161 90.036 236.897 96.7928 232.923C104.703 228.263 112.631 223.53 121.189 220.08C123.928 218.979 126.667 217.678 129.748 217.786C131.423 217.841 132.883 218.328 133.568 219.936C134.342 221.778 133.027 222.934 131.748 223.801C129.297 225.499 126.793 227.125 124.216 228.606C118.486 231.876 116.973 234.133 116.486 234.91C115.91 235.831 114.595 237.981 115.441 239.498C115.802 240.148 116.414 240.455 116.811 240.636C118.811 241.575 120.991 240.889 121.91 240.582C125.964 239.245 129.964 237.258 133.532 235.56C136.018 234.386 138.36 233.321 140.108 234.314C140.324 234.44 140.811 234.766 141.171 235.344C142.613 237.638 141.279 239.841 139.622 241.648C139.099 242.226 138.504 242.713 137.91 243.219C129.91 250.228 120.252 254.509 111.009 259.331C105.009 262.474 101.405 266.918 99.2252 273.023C96.0901 281.91 96.1261 291.466 93.1531 300.353Z" fill="white"/>
<path d="M156.432 43.1526C157.585 45.555 159.387 47.4697 161.117 49.4386C159.369 54.8756 157.549 60.2945 155.91 65.7857C153.459 74.0044 154.162 81.7354 158.504 89.4302C163.207 97.7573 168.054 106.084 171.369 115.134C172.306 117.699 173.153 120.318 172.883 123.1C172.739 124.563 172.198 125.936 170.649 126.46C168.919 127.038 167.946 125.827 167.171 124.635C165.261 121.691 163.459 118.692 161.64 115.694C160.018 112.984 158.126 110.564 155.333 108.974C154.018 108.216 152.54 108.053 151.243 108.794C149.676 109.697 150.09 111.25 150.486 112.641C150.991 114.393 151.369 116.182 152.126 117.843C153.91 121.691 155.063 125.809 156.558 129.783C157.009 130.975 157.549 132.493 156.829 133.685C156.108 134.877 154.522 135.076 154.432 135.094C152.937 135.256 151.712 134.335 151.279 133.992C147.153 130.849 137.477 112.768 133.369 106.211C130.793 102.092 128.198 95.1562 121.567 92.3926C112.252 88.4909 102.414 87.082 92.5044 85.8176C91.4413 85.2396 91.3513 83.632 89.9639 83.3791C88.6305 80.6154 89.8017 79.1343 92.5404 78.773C95.099 78.4298 97.6936 78.1589 100.27 78.2131C108.811 78.3395 117.387 78.1589 125.712 76.2261C129.513 75.341 132.757 72.6677 135.874 70.175C141.64 65.5689 145.766 59.6623 149.423 53.3402C151.513 49.7276 152.901 45.6815 156.432 43.1526Z" fill="white"/>
<path d="M347.856 234.91C346.649 234.892 345.442 234.874 344.234 234.874C340.144 230.665 335.027 225.445 328.973 219.448C325.694 216.197 323.55 214.12 319.946 212.566C318.901 212.115 316.739 211.284 307.135 210.688C297.91 210.11 290.775 210.146 290.775 210.146C287.784 210.164 284.811 209.893 281.82 209.802C280.36 209.766 277.748 209.694 274.721 208.556C272.577 207.743 271.442 206.858 271.117 205.72C271.045 205.485 270.829 204.709 271.171 203.896C271.442 203.228 271.946 202.884 272.216 202.686C272.991 202.144 273.802 202.035 274.216 202.017C274.793 201.909 275.712 201.764 276.847 201.62C279.928 201.223 280.991 201.349 284.973 201.024C284.973 201.024 286.595 200.897 290.883 200.121C291.442 200.012 292.396 199.85 293.405 199.199C293.982 198.82 294.919 198.224 295.351 197.086C295.748 195.984 295.604 194.648 294.937 193.69C294.36 192.877 293.55 192.588 291.928 192.046C291.009 191.739 290.036 191.487 287.892 191.179C286.036 190.908 284.577 190.746 283.928 190.692C280.054 190.312 277.568 190.15 277.568 190.15C275.748 190.023 274.577 189.969 273.387 189.156C272.955 188.849 272.306 188.398 272.018 187.585C271.496 186.104 272.487 184.388 273.55 183.503C274.126 183.015 274.757 182.852 275.964 182.437C276.775 182.148 277.892 181.823 279.424 181.642C283.586 181.136 293.568 181.48 295.892 181.534C296.901 181.57 301.315 181.678 306.991 181.443C312.054 181.227 314.595 181.191 316.415 180.667C321.55 179.186 325.838 176.006 329.838 171.689C333.964 167.246 337.153 161.99 341.928 158.142C342.883 155.541 346.054 155.559 347.442 153.482C350.865 155.975 349.442 158.919 348.108 161.755C345.027 168.275 341.135 174.381 338.36 181.082C333.82 192.028 334.901 202.668 339.964 213C342.541 218.256 345.189 223.512 348.541 228.371C349.928 230.43 350.577 232.977 347.856 234.91Z" fill="white"/>
<path d="M56.4683 230.449C55.0809 232.616 52.0719 232.634 50.7025 234.838C48.18 233.284 47.6755 231.297 49.0989 228.642C51.6034 223.964 53.8016 219.105 56.4503 214.517C65.3692 199.073 64.0719 184.081 54.9007 169.287C52.9908 166.216 51.153 163.091 49.3872 159.912C48.18 157.763 47.6575 155.541 49.7836 153.554C51.171 153.59 52.5404 153.644 53.9277 153.681C59.2611 159.081 64.5584 164.5 69.9458 169.865C74.8647 174.76 80.8647 176.91 87.7656 177.036C96.9728 177.199 106.198 176.711 115.369 177.795C118.45 178.156 121.549 178.481 124.432 179.8C126.504 180.757 127.82 182.473 127.513 184.586C127.207 186.664 124.991 186.411 123.351 186.519C119.73 186.736 116.09 186.844 112.468 187.115C110 187.296 107.603 187.802 105.441 189.138C104.126 189.951 103.315 191.107 103.315 192.624C103.315 192.624 103.333 193.257 103.621 193.871C104.486 195.749 109.675 196.364 109.675 196.364C110.468 196.454 120.558 197.628 123.928 198.477C124.504 198.621 125.693 198.965 126.306 199.958C126.54 200.337 126.684 200.771 126.721 201.241C126.865 202.848 126.036 204.311 124.522 204.998C122.522 205.919 120.432 206.533 118.198 206.804C109.135 207.924 100.036 207.761 90.9908 206.948C82.3782 206.172 75.4052 208.881 69.7115 215.113C65.153 220.116 60.8647 225.337 56.4683 230.449Z" fill="white"/>
<path d="M347.405 153.482C346.018 155.559 342.847 155.541 341.892 158.142C335.099 155.595 328.234 153.355 321.117 151.856C318.018 151.206 315.045 151.079 312.18 151.459C310.685 151.657 309.279 151.983 302.414 154.873C296.072 157.546 292.901 158.865 289.225 160.797C284.45 163.29 280.486 165.512 280.486 165.512C280.486 165.512 277.622 167.119 271.459 168.799C270.522 169.052 269.225 169.377 268.324 168.691C267.297 167.896 267.207 166.036 267.712 164.753C267.928 164.193 268.342 163.525 270.883 161.755C272.18 160.852 273.045 160.346 274.306 159.587C276.144 158.485 278.18 157.203 280.234 155.776C282.486 154.204 283.117 153.59 283.676 152.813C284.216 152.055 285.369 150.447 284.865 148.912C284.577 148.045 283.892 147.557 283.676 147.413C283.333 147.268 282.811 147.088 282.144 146.961C281.586 146.853 280.288 146.672 276.883 147.539C276.108 147.738 274.829 148.117 272.288 148.876C272.234 148.894 271.712 149.038 271.009 149.255C268.126 150.086 268.937 149.689 265.207 150.664C263.658 151.079 262.757 151.35 261.459 151.17C260.703 151.061 259.495 150.917 258.901 150.014C258.072 148.767 258.955 146.943 259.225 146.383C260.324 144.125 262.378 143.005 263.73 142.301C268.721 139.7 271.225 138.381 273.045 137.532C276 136.141 278.937 134.227 284.793 130.433C289.838 127.164 292.396 125.556 293.423 124.454C297.225 120.408 299.387 115.224 300.613 109.119C302.018 102.147 302.306 94.9394 304.973 88.2381C306.09 87.5878 307.207 86.9556 308.342 86.3053C311.586 87.8949 311.009 91.074 311.189 93.7654C311.604 99.979 311.369 106.229 311.928 112.461C313.081 125.611 319.802 135.112 330.54 142.066C334.577 144.685 338.901 146.853 343.027 149.327C344.739 150.357 346.703 151.278 347.405 153.482Z" fill="white"/>
<path d="M284.685 60.3848C284.775 66.5082 279.802 72.2884 274.414 72.3064C269.784 72.3245 267.297 69.0731 267.171 62.8594C267.045 56.8625 270.667 52.8525 276.378 52.708C281.243 52.5816 284.613 55.6884 284.685 60.3848Z" fill="white"/>
<path d="M349.027 205.214C343.874 205.233 340.072 202.704 339.045 199.163C338.414 196.978 339.045 195.027 339.279 194.413C340.721 190.403 344.793 189.048 345.676 188.759C346.126 188.614 350.919 187.097 355.171 189.933C356.036 190.511 358.09 191.884 358.883 194.575C359.91 198.098 357.946 201.06 357.694 201.439C355.027 205.341 350 205.214 349.027 205.214Z" fill="white"/>
<path d="M130.613 323.202C130.54 329.976 127.279 333.661 121.405 333.625C115.748 333.571 112.901 330.97 113.027 325.858C113.171 319.662 117.513 314.749 123.423 314.622C127.982 314.514 130.667 317.802 130.613 323.202Z" fill="white"/>
<path d="M280.829 328.441C280.919 333.083 276.901 337.725 272.685 337.833C268.018 337.96 263.027 332.108 262.937 326.454C262.865 321.812 265.874 318.054 269.712 318C275.081 317.91 280.721 323.184 280.829 328.441Z" fill="white"/>
<path d="M70.2881 124.075C63.8737 123.858 60.2701 120.264 60.4503 114.285C60.5944 109.39 63.5854 106.283 68.0719 106.391C74.4863 106.536 79.4773 111.467 79.3332 117.5C79.2251 121.853 75.9098 124.256 70.2881 124.075Z" fill="white"/>
<path d="M191.279 41.5812C191.243 36.4513 195.423 32.1342 200.468 32.0439C204.847 31.9716 208.396 36.5777 208.36 42.2676C208.324 47.4697 204.36 52.1481 199.928 52.2022C195.351 52.2564 191.297 47.2891 191.279 41.5812Z" fill="white"/>
<path d="M69.9818 256.785C74.7566 256.821 77.6755 258.952 78.2881 262.583C79.0088 266.864 75.9638 272.21 71.7656 273.89C68.0539 275.389 64.6845 274.775 61.7476 272.03C59.6395 270.061 58.144 267.64 59.1169 264.786C60.5944 260.451 63.9638 257.922 68.4142 256.893C69.0449 256.748 69.6935 256.803 69.9818 256.785Z" fill="white"/>
<path d="M326.883 264.136C332.991 264.1 337.676 268.218 337.64 273.583C337.603 278.496 334.631 281.856 330.27 281.928C324.144 282.037 318.504 277.033 318.378 271.361C318.27 267.297 321.964 264.172 326.883 264.136Z" fill="white"/>
<path d="M189.784 346.377C189.82 340.669 193.676 336.118 198.324 336.262C202.811 336.388 206.973 341.699 206.811 347.136C206.667 352.049 202.45 356.149 197.495 356.186C192.919 356.204 189.73 352.176 189.784 346.377Z" fill="white"/>
<path d="M328.018 131.716C321.982 131.427 317.207 127.724 320.721 120.137C323.063 115.08 328.378 112.587 332.847 114.231C336.847 115.694 339.676 119.794 338.991 123.154C338.144 127.345 332.649 131.626 328.018 131.716Z" fill="white"/>
<path d="M54.5405 186.971C55.1711 187.314 58.6306 189.156 59.1711 192.805C59.6035 195.731 57.8738 198.025 57.5855 198.423C54.4684 202.559 46.5225 204.438 42.1441 200.193C39.6756 197.809 38.5044 193.636 39.9819 190.367C42.2882 185.273 50.018 184.55 54.5405 186.971Z" fill="white"/>
<path d="M117.207 59.8249C117.189 54.6949 120.775 51.3713 126.36 51.3171C130.595 51.281 135.081 56.718 135.135 61.9382C135.171 66.2192 131.532 70.2834 127.73 70.2292C122.36 70.1569 117.225 65.0631 117.207 59.8249Z" fill="white"/>
<path d="M236.576 338.881C238.721 340.561 239.802 343.018 241.171 345.275C239.477 348.437 236.937 347.786 234.504 346.522C229.784 344.083 225.099 341.573 220.522 338.899C205.531 330.121 190.865 331.457 176.342 340.109C172.901 342.169 169.423 344.192 165.838 345.998C163.567 347.136 161.261 347.172 159.946 344.336C159.982 343.397 160.036 342.476 160.072 341.536C165.009 337.183 168.901 333.264 171.712 330.319C180 321.595 181.477 318.325 182.126 316.627C183.477 313.159 183.838 310.125 184.396 305.464C184.667 303.225 184.901 300.479 184.919 293.236C184.955 284.258 184.558 273.872 187.477 270.242C187.874 269.754 189.243 268.038 191.225 267.875C191.549 267.857 192.144 267.803 192.721 268.146C193.856 268.815 194 270.476 194.072 271.452C194.288 274.378 194.342 275.823 194.306 278.84C194.27 283.139 194.27 287.419 196.865 290.4C197.315 290.924 198.612 292.405 200.072 292.188C201.207 292.026 201.964 290.906 202.576 289.75C204.234 286.552 204.522 283.355 204.847 278.46C205.135 273.872 205.297 270.242 207.009 269.23C207.982 268.652 209.045 268.616 209.045 268.616C212.937 268.544 213.369 272.59 213.874 275.606C215.603 285.956 214.721 296.379 214.126 306.729C213.73 313.611 215.73 319.156 220.216 324.124C225.189 329.597 230.973 334.149 236.576 338.881Z" fill="white"/>
<path d="M199.261 251.98C231.144 251.98 256.991 226.069 256.991 194.106C256.991 162.143 231.144 136.232 199.261 136.232C167.378 136.232 141.531 162.143 141.531 194.106C141.531 226.069 167.378 251.98 199.261 251.98Z" fill="white"/>
<path d="M5.3512 217.081C5.9458 215.636 6.86472 214.462 8.12598 213.541C9.38724 212.637 10.8647 212.077 12.5764 211.861C14.2881 211.644 15.8557 211.843 17.2971 212.421C18.7206 212.999 19.9098 213.92 20.8287 215.184C21.7476 216.449 22.3062 217.948 22.5224 219.682C22.7386 221.398 22.5404 222.987 21.9458 224.433C21.3512 225.878 20.4323 227.052 19.189 227.973C17.9278 228.894 16.4503 229.454 14.7386 229.671C13.0269 229.888 11.4413 229.689 9.99985 229.093C8.55841 228.497 7.38724 227.576 6.46832 226.329C5.5494 225.083 4.99084 223.584 4.77463 221.85C4.55841 220.115 4.77463 218.526 5.3512 217.081ZM8.18003 224.902C8.90075 225.841 9.81967 226.546 10.9188 226.979C12.0179 227.413 13.2071 227.557 14.4683 227.413C15.7296 227.25 16.8467 226.835 17.8197 226.149C18.7926 225.462 19.4953 224.559 19.9638 223.493C20.4323 222.409 20.5944 221.235 20.4323 219.953C20.2701 218.67 19.8377 217.551 19.135 216.629C18.4323 215.708 17.5134 215.004 16.4143 214.57C15.3152 214.119 14.126 213.992 12.8647 214.137C11.5854 214.299 10.4683 214.715 9.51337 215.401C8.55841 216.087 7.83769 216.991 7.3512 218.074C6.86472 219.158 6.72057 220.35 6.86472 221.615C7.02688 222.861 7.45931 223.963 8.18003 224.902Z" fill="white" stroke="white" stroke-width="0.5895" stroke-miterlimit="10"/>
<path d="M7.7477 237.15C7.90987 236.879 8.16212 236.698 8.46842 236.626L23.1711 233.158C23.4955 233.086 23.8018 233.122 24.072 233.303C24.3243 233.465 24.5045 233.718 24.5765 234.043L25.8018 239.299C26.036 240.275 26.036 241.196 25.8378 242.045C25.6396 242.894 25.2432 243.617 24.6486 244.213C24.054 244.809 23.3333 245.206 22.4684 245.405C21.7657 245.567 21.081 245.531 20.4144 245.278C19.7657 245.025 19.1711 244.592 18.6666 244.014C18.6666 245.062 18.3964 245.965 17.8378 246.687C17.2792 247.428 16.4684 247.916 15.3873 248.168C14.3964 248.403 13.4594 248.367 12.5765 248.078C11.6756 247.789 10.9189 247.265 10.2882 246.507C9.65761 245.748 9.20716 244.827 8.95491 243.743L7.62158 238.035C7.5495 237.71 7.58554 237.421 7.7477 237.15ZM11.045 243.255C11.2792 244.285 11.7477 245.044 12.4144 245.549C13.0991 246.055 13.9099 246.2 14.8828 245.965C15.7837 245.748 16.3964 245.278 16.7207 244.538C17.045 243.797 17.0991 242.912 16.8468 241.882L15.7837 237.313L9.96392 238.685L11.045 243.255ZM18.8288 240.925C19.027 241.792 19.4054 242.424 19.9459 242.858C20.4864 243.273 21.1531 243.4 21.9459 243.201C22.7387 243.02 23.2792 242.605 23.5855 241.991C23.8738 241.377 23.9279 240.636 23.7117 239.769L22.7567 235.669L17.8738 236.825L18.8288 240.925Z" fill="white" stroke="white" stroke-width="0.5895" stroke-miterlimit="10"/>
<path d="M13.2071 256.351C13.4413 255.014 13.9819 253.949 14.8468 253.19C14.9909 253.064 15.117 252.973 15.2251 252.937C15.4413 252.865 15.6576 252.883 15.8558 252.973C16.072 253.082 16.2522 253.244 16.3963 253.497C16.4323 253.533 16.4504 253.605 16.4864 253.696C16.5585 253.931 16.5765 254.165 16.5044 254.418C16.4323 254.671 16.3062 254.888 16.126 255.069C15.6576 255.52 15.3693 256.17 15.2431 257.055C15.117 257.941 15.2071 258.844 15.5134 259.747C15.8738 260.813 16.4143 261.644 17.1531 262.222C17.8918 262.8 18.6846 262.944 19.5314 262.655C20.3422 262.384 20.9188 261.842 21.2792 261.011C21.6395 260.198 21.6576 259.115 21.3513 257.796C20.9188 255.972 20.9729 254.4 21.4774 253.1C21.9819 251.799 22.8828 250.932 24.1621 250.499C25.063 250.191 25.9278 250.191 26.7567 250.481C27.5855 250.77 28.3242 251.311 28.9729 252.106C29.6215 252.901 30.1441 253.858 30.5224 254.978C30.9368 256.207 31.045 257.326 30.8287 258.32C30.6125 259.331 30.1621 260.271 29.4413 261.174C29.2251 261.445 29.0089 261.607 28.7747 261.698C28.4684 261.806 28.1621 261.752 27.8738 261.535C27.7296 261.409 27.6035 261.246 27.5314 261.029C27.4594 260.813 27.4413 260.596 27.4954 260.379C27.5314 260.162 27.6395 259.964 27.7837 259.801C28.2882 259.205 28.6125 258.555 28.7386 257.868C28.8828 257.182 28.7927 256.387 28.4864 255.502C28.126 254.418 27.6215 253.605 26.9729 253.082C26.3242 252.558 25.6215 252.431 24.8287 252.684C24.09 252.937 23.5855 253.443 23.2972 254.202C23.0089 254.96 23.045 256.152 23.4053 257.742C23.8197 259.512 23.7477 261.011 23.2251 262.24C22.6846 263.468 21.7296 264.317 20.3242 264.805C19.3152 265.148 18.3422 265.166 17.4413 264.859C16.5404 264.552 15.7296 263.992 15.063 263.197C14.3963 262.402 13.8738 261.481 13.5314 260.415C13.081 259.06 12.9729 257.688 13.2071 256.351Z" fill="white" stroke="white" stroke-width="0.5895" stroke-miterlimit="10"/>
<path d="M18.4865 272.156C18.5946 271.867 18.8108 271.65 19.0991 271.506L32.8829 265.31C33.1892 265.166 33.4955 265.166 33.7838 265.274C34.072 265.382 34.2883 265.599 34.4144 265.906L38.5765 275.209C38.7207 275.516 38.7387 275.823 38.6486 276.094C38.5585 276.365 38.3603 276.582 38.054 276.708C37.7657 276.834 37.4955 276.834 37.2252 276.726C36.9549 276.618 36.7567 276.401 36.6126 276.076L32.9369 267.839L27.982 270.061L30.6306 276.004C30.7747 276.311 30.7928 276.6 30.6847 276.871C30.5946 277.16 30.3964 277.358 30.1081 277.485C29.8198 277.611 29.5495 277.611 29.2793 277.503C29.009 277.394 28.8108 277.178 28.6666 276.871L26.018 270.964L20.9369 273.258L24.6126 281.495C24.7567 281.802 24.7747 282.109 24.6847 282.38C24.5946 282.651 24.4144 282.85 24.1261 282.976C23.8198 283.102 23.5495 283.12 23.2793 283.012C23.009 282.904 22.8108 282.687 22.6666 282.38L18.5045 273.077C18.3783 272.752 18.3603 272.463 18.4865 272.156Z" fill="white" stroke="white" stroke-width="0.5895" stroke-miterlimit="10"/>
<path d="M32.3782 298.095C32.126 298.239 31.8557 298.275 31.5855 298.203C31.3152 298.131 31.0809 297.932 30.9188 297.625C30.7026 297.246 30.7026 296.866 30.9188 296.469L34.3963 290.057L34.1981 289.695L32.7927 287.167L27.9458 289.894C27.6575 290.057 27.3692 290.093 27.0629 290.021C26.7566 289.948 26.5224 289.75 26.3602 289.443C26.1981 289.154 26.162 288.846 26.2521 288.557C26.3422 288.25 26.5224 288.016 26.8107 287.853L39.9819 280.447C40.2882 280.285 40.5764 280.248 40.8828 280.339C41.1891 280.429 41.4053 280.628 41.5674 280.899L43.5494 284.439C44.09 285.414 44.3782 286.39 44.4143 287.383C44.4503 288.377 44.2161 289.298 43.7296 290.129C43.2431 290.96 42.5224 291.646 41.6035 292.17C40.6846 292.694 39.7296 292.911 38.7566 292.838C37.7837 292.766 36.8828 292.423 36.0539 291.827L32.9548 297.535C32.7746 297.77 32.5945 297.968 32.3782 298.095ZM36.0359 288.648C36.5404 289.533 37.1891 290.129 38.0179 290.436C38.8467 290.725 39.6395 290.653 40.4323 290.219C41.2791 289.732 41.8197 289.063 42.0539 288.178C42.2882 287.293 42.144 286.408 41.6395 285.523L40.2341 282.994L34.6305 286.155L36.0359 288.648Z" fill="white" stroke="white" stroke-width="0.5895" stroke-miterlimit="10"/>
<path d="M55.9999 304.345C55.9638 304.597 55.8197 304.814 55.5855 304.977C55.4413 305.085 55.2611 305.157 55.0269 305.194L38.7747 308.318C38.2521 308.445 37.8557 308.282 37.5674 307.867C37.2972 307.469 37.2972 307.036 37.5674 306.566L46.126 292.622C46.3062 292.351 46.4864 292.152 46.6665 292.026C46.9188 291.863 47.153 291.809 47.4053 291.863C47.6575 291.917 47.8738 292.08 48.0539 292.351C48.3602 292.784 48.3602 293.218 48.09 293.633L40.2161 305.988L54.5765 303.08C54.8647 303.008 55.081 303.026 55.2611 303.098C55.4413 303.17 55.6035 303.333 55.7476 303.55C55.9819 303.821 56.0539 304.092 55.9999 304.345Z" fill="white" stroke="white" stroke-width="0.5895" stroke-miterlimit="10"/>
<path d="M53.5314 326.562C53.2971 326.761 53.0089 326.851 52.7026 326.815C52.3962 326.779 52.126 326.634 51.9098 326.382C51.7656 326.201 51.6755 326.002 51.6395 325.767C51.6035 325.533 51.6575 325.316 51.7656 325.099L53.3692 322.137L48.2161 315.887L44.9908 316.898C44.7566 316.953 44.5224 316.953 44.3062 316.88C44.0899 316.808 43.9098 316.682 43.7656 316.519C43.5494 316.266 43.4593 315.977 43.5134 315.67C43.5494 315.363 43.6935 315.092 43.9278 314.893C44.0359 314.803 44.1981 314.713 44.3963 314.659L59.9638 309.98C60.5044 309.818 60.9368 309.944 61.2611 310.341C61.6035 310.757 61.6395 311.208 61.3692 311.696L53.8557 326.183C53.7296 326.345 53.6395 326.472 53.5314 326.562ZM50.1981 315.273L54.3422 320.294L58.4143 312.726L50.1981 315.273Z" fill="white" stroke="white" stroke-width="0.5895" stroke-miterlimit="10"/>
<path d="M75.4234 326.165C75.4234 326.454 75.3153 326.707 75.0811 326.923C74.8648 327.14 74.5946 327.249 74.3243 327.249C74.054 327.249 73.7838 327.122 73.5676 326.905L70.1982 323.437L60.0901 333.318C59.8558 333.553 59.5856 333.661 59.2613 333.661C58.9369 333.661 58.6667 333.534 58.4324 333.3C58.1982 333.065 58.0901 332.794 58.0901 332.469C58.0901 332.144 58.2162 331.873 58.4504 331.656L68.5585 321.775L65.1712 318.289C64.9549 318.072 64.8468 317.802 64.8468 317.513C64.8468 317.224 64.9549 316.971 65.1892 316.754C65.4054 316.537 65.6757 316.429 65.9459 316.429C66.2162 316.429 66.4865 316.555 66.7027 316.772L75.0991 325.424C75.3153 325.623 75.4234 325.894 75.4234 326.165Z" fill="white" stroke="white" stroke-width="0.5895" stroke-miterlimit="10"/>
<path d="M69.4773 342.656C68.9367 341.193 68.8106 339.712 69.1169 338.177C69.4232 336.641 70.1259 335.232 71.243 333.896C72.3601 332.577 73.6394 331.638 75.0809 331.078C76.5223 330.536 78.0178 330.391 79.5313 330.699C81.0448 331.006 82.4863 331.71 83.8196 332.83C85.1349 333.95 86.0719 335.232 86.6124 336.695C87.1529 338.159 87.2971 339.64 86.9908 341.175C86.7025 342.711 85.9998 344.119 84.8827 345.456C83.7656 346.775 82.4863 347.714 81.0268 348.274C79.5674 348.834 78.0719 348.96 76.5583 348.671C75.0448 348.382 73.6034 347.678 72.2701 346.54C70.9728 345.402 70.0358 344.119 69.4773 342.656ZM76.8647 346.468C78.0358 346.666 79.171 346.558 80.2701 346.124C81.3692 345.691 82.3421 344.986 83.171 344.011C83.9998 343.036 84.5223 341.952 84.7565 340.796C84.9908 339.622 84.9187 338.484 84.5223 337.382C84.1259 336.28 83.4412 335.305 82.4502 334.456C81.4592 333.607 80.3962 333.101 79.225 332.902C78.0538 332.704 76.9367 332.812 75.8196 333.245C74.7205 333.679 73.7475 334.383 72.9187 335.359C72.0899 336.334 71.5674 337.418 71.3331 338.574C71.0989 339.748 71.171 340.886 71.5674 342.006C71.9638 343.126 72.6484 344.101 73.6214 344.932C74.5944 345.763 75.7115 346.269 76.8647 346.468ZM84.5583 330.825C84.5403 330.518 84.6304 330.247 84.8466 329.994C85.0448 329.759 85.2791 329.615 85.5493 329.597L88.6484 329.344C88.9728 329.326 89.243 329.416 89.4773 329.615C89.7295 329.832 89.8737 330.084 89.8917 330.41C89.9097 330.717 89.8196 331.006 89.6034 331.259C89.3872 331.511 89.1529 331.638 88.8647 331.656L85.8016 331.909C85.5133 331.927 85.243 331.837 84.9908 331.638C84.7205 331.385 84.5764 331.114 84.5583 330.825Z" fill="white" stroke="white" stroke-width="0.5895" stroke-miterlimit="10"/>
<path d="M94.5404 361.442C94.3783 361.695 94.144 361.839 93.8738 361.893C93.5855 361.948 93.3152 361.875 93.0269 361.677C92.6666 361.424 92.4864 361.081 92.5044 360.647L92.7747 353.368L92.4323 353.133L90.054 351.507L86.9188 356.095C86.7386 356.366 86.4864 356.529 86.1801 356.601C85.8738 356.655 85.5855 356.601 85.2972 356.402C85.0269 356.222 84.8648 355.969 84.7927 355.662C84.7386 355.355 84.7927 355.066 84.9729 354.795L93.4954 342.295C93.6936 342.006 93.9458 341.843 94.2522 341.789C94.5585 341.735 94.8467 341.807 95.117 341.988L98.4684 344.282C99.3873 344.914 100.072 345.655 100.54 346.54C101.009 347.425 101.207 348.346 101.135 349.304C101.063 350.261 100.739 351.2 100.126 352.085C99.5314 352.952 98.7747 353.584 97.8738 353.946C96.9729 354.325 96.0179 354.415 95.0089 354.235L94.7567 360.719C94.7567 360.99 94.6666 361.225 94.5404 361.442ZM93.6395 351.345C94.4864 351.923 95.3332 352.157 96.1981 352.067C97.063 351.959 97.7476 351.543 98.2702 350.785C98.8287 349.972 99.0089 349.123 98.8107 348.238C98.6125 347.353 98.108 346.612 97.2612 346.034L94.8828 344.408L91.2612 349.719L93.6395 351.345Z" fill="white" stroke="white" stroke-width="0.5895" stroke-miterlimit="10"/>
<path d="M98.4504 364.567C98.3784 364.26 98.4144 363.971 98.5766 363.682L106.27 350.658C106.45 350.369 106.685 350.189 106.991 350.116C107.297 350.044 107.586 350.098 107.874 350.261C108.18 350.441 108.36 350.676 108.432 350.965C108.505 351.272 108.468 351.561 108.288 351.85L100.595 364.874C100.432 365.163 100.198 365.343 99.8919 365.416C99.5856 365.488 99.2973 365.452 98.991 365.271C98.7207 365.109 98.5405 364.874 98.4504 364.567Z" fill="white" stroke="white" stroke-width="0.5895" stroke-miterlimit="10"/>
<path d="M109.387 370.058C108.504 368.775 108.018 367.367 107.928 365.813C107.856 364.26 108.18 362.706 108.937 361.153C109.694 359.599 110.703 358.371 111.964 357.486C113.225 356.601 114.648 356.113 116.198 356.023C117.748 355.933 119.315 356.276 120.883 357.035C122.432 357.793 123.658 358.805 124.54 360.087C125.423 361.37 125.928 362.779 126.018 364.332C126.108 365.885 125.784 367.439 125.027 368.992C124.27 370.546 123.261 371.774 121.982 372.659C120.703 373.562 119.297 374.05 117.748 374.14C116.198 374.231 114.648 373.887 113.081 373.129C111.513 372.37 110.288 371.34 109.387 370.058ZM117.495 371.937C118.685 371.846 119.748 371.449 120.721 370.762C121.694 370.076 122.45 369.155 123.009 367.999C123.567 366.843 123.82 365.669 123.766 364.495C123.712 363.32 123.351 362.219 122.703 361.243C122.054 360.268 121.153 359.491 119.982 358.931C118.811 358.371 117.658 358.136 116.486 358.227C115.315 358.317 114.252 358.714 113.279 359.401C112.306 360.087 111.549 361.008 110.991 362.164C110.432 363.32 110.18 364.495 110.234 365.669C110.288 366.861 110.648 367.945 111.297 368.938C111.946 369.932 112.847 370.708 114 371.268C115.135 371.792 116.306 372.027 117.495 371.937Z" fill="white" stroke="white" stroke-width="0.5895" stroke-miterlimit="10"/>
<path d="M135.513 381.889C135.369 381.6 135.333 381.311 135.441 381.004L139.874 366.536C139.982 366.211 140.162 365.976 140.45 365.831C140.721 365.687 141.027 365.669 141.333 365.759L145.225 366.951C146.847 367.457 148.18 368.252 149.225 369.354C150.27 370.455 150.955 371.738 151.261 373.219C151.585 374.7 151.495 376.236 150.991 377.843C150.504 379.451 149.712 380.787 148.612 381.835C147.513 382.883 146.234 383.569 144.757 383.894C143.279 384.219 141.73 384.129 140.108 383.641L136.216 382.449C135.892 382.359 135.657 382.178 135.513 381.889ZM140.703 381.691C141.892 382.052 143.045 382.106 144.144 381.853C145.243 381.6 146.216 381.058 147.027 380.246C147.838 379.433 148.45 378.403 148.829 377.175C149.207 375.947 149.279 374.772 149.045 373.634C148.811 372.515 148.306 371.521 147.549 370.69C146.793 369.859 145.802 369.263 144.594 368.902L141.82 368.053L137.91 380.824L140.703 381.691Z" fill="white" stroke="white" stroke-width="0.5895" stroke-miterlimit="10"/>
<path d="M154.775 387.38C154.594 387.11 154.54 386.821 154.612 386.495L157.603 371.666C157.676 371.322 157.838 371.07 158.108 370.907C158.378 370.744 158.666 370.69 158.991 370.762L168.973 372.786C169.315 372.858 169.567 373.002 169.73 373.237C169.892 373.472 169.946 373.761 169.874 374.086C169.802 374.393 169.657 374.628 169.423 374.772C169.171 374.917 168.883 374.953 168.54 374.899L159.712 373.111L158.63 378.439L164.973 379.722C165.297 379.794 165.549 379.938 165.712 380.173C165.892 380.408 165.946 380.679 165.874 380.986C165.802 381.293 165.657 381.528 165.405 381.673C165.153 381.817 164.865 381.871 164.54 381.799L158.198 380.517L157.099 385.99L165.928 387.778C166.27 387.85 166.522 387.995 166.685 388.229C166.847 388.464 166.901 388.735 166.847 389.042C166.775 389.367 166.63 389.602 166.378 389.765C166.126 389.927 165.838 389.963 165.495 389.891L155.513 387.868C155.207 387.814 154.955 387.633 154.775 387.38Z" fill="white" stroke="white" stroke-width="0.5895" stroke-miterlimit="10"/>
<path d="M180.883 391.517C180.684 391.282 180.594 390.993 180.612 390.668L181.946 375.585C181.982 375.242 182.108 374.971 182.36 374.772C182.594 374.574 182.883 374.501 183.225 374.519C183.567 374.556 183.838 374.682 184.036 374.917C184.234 375.152 184.324 375.441 184.288 375.784L182.955 390.867C182.919 391.192 182.793 391.463 182.558 391.661C182.324 391.86 182.036 391.95 181.693 391.914C181.351 391.896 181.081 391.752 180.883 391.517Z" fill="white" stroke="white" stroke-width="0.5895" stroke-miterlimit="10"/>
<path d="M189.856 392.239C189.639 392.023 189.531 391.734 189.549 391.39L189.784 376.254C189.784 375.91 189.91 375.639 190.126 375.423C190.342 375.206 190.63 375.116 190.955 375.116C191.117 375.116 191.279 375.17 191.441 375.242C191.603 375.314 191.747 375.423 191.838 375.549L201.441 388.681L201.639 376.452C201.639 376.109 201.765 375.838 202 375.621C202.234 375.405 202.504 375.314 202.829 375.314C203.153 375.314 203.423 375.441 203.639 375.658C203.856 375.874 203.964 376.163 203.946 376.506L203.711 391.643C203.711 391.987 203.585 392.257 203.369 392.474C203.153 392.691 202.865 392.799 202.54 392.781C202.378 392.781 202.216 392.745 202.036 392.673C201.874 392.601 201.729 392.492 201.639 392.366L192.036 379.234L191.838 391.445C191.838 391.77 191.711 392.041 191.495 392.276C191.279 392.492 190.991 392.601 190.648 392.601C190.342 392.565 190.072 392.456 189.856 392.239Z" fill="white" stroke="white" stroke-width="0.5895" stroke-miterlimit="10"/>
<path d="M211.063 392.113C210.829 391.914 210.684 391.643 210.648 391.318L209.279 376.236C209.243 375.892 209.333 375.603 209.531 375.368C209.729 375.134 210 375.007 210.324 374.971L214.378 374.61C216.072 374.465 217.603 374.682 218.991 375.314C220.378 375.947 221.495 376.868 222.342 378.114C223.189 379.36 223.693 380.824 223.838 382.503C223.982 384.183 223.765 385.719 223.153 387.11C222.54 388.5 221.603 389.62 220.36 390.487C219.117 391.354 217.639 391.86 215.946 392.005L211.892 392.366C211.603 392.402 211.315 392.312 211.063 392.113ZM215.802 389.945C217.045 389.837 218.126 389.458 219.063 388.789C220 388.139 220.684 387.272 221.135 386.206C221.585 385.141 221.765 383.967 221.639 382.684C221.531 381.402 221.153 380.282 220.504 379.324C219.874 378.367 219.027 377.644 218 377.175C216.973 376.705 215.838 376.525 214.594 376.633L211.693 376.886L212.901 390.18L215.802 389.945Z" fill="white" stroke="white" stroke-width="0.5895" stroke-miterlimit="10"/>
<path d="M230.757 389.855C230.504 389.674 230.342 389.422 230.288 389.096L227.838 374.158C227.784 373.815 227.838 373.526 228.036 373.273C228.216 373.02 228.486 372.876 228.811 372.822C229.153 372.767 229.441 372.822 229.693 373.002C229.946 373.183 230.09 373.436 230.144 373.779L232.594 388.717C232.648 389.042 232.594 389.331 232.414 389.584C232.234 389.837 231.982 390 231.639 390.054C231.297 390.09 231.009 390.036 230.757 389.855Z" fill="white" stroke="white" stroke-width="0.5895" stroke-miterlimit="10"/>
<path d="M242.577 386.947C241.099 386.495 239.838 385.683 238.757 384.545C237.694 383.389 236.973 382.016 236.577 380.408C236.198 378.819 236.216 377.265 236.649 375.766C237.081 374.267 237.838 372.966 238.937 371.882C240.036 370.799 241.369 370.058 242.937 369.679C244.054 369.408 245.045 369.317 245.928 369.408C246.811 369.498 247.748 369.787 248.739 370.239C248.937 370.329 249.099 370.437 249.189 370.564C249.279 370.69 249.351 370.835 249.387 371.033C249.459 371.322 249.405 371.593 249.243 371.828C249.081 372.063 248.865 372.226 248.577 372.28C248.306 372.352 248.018 372.316 247.748 372.189C247.027 371.828 246.36 371.593 245.73 371.521C245.099 371.449 244.342 371.503 243.441 371.72C242.306 371.991 241.333 372.551 240.523 373.363C239.712 374.194 239.153 375.188 238.829 376.344C238.505 377.5 238.505 378.674 238.793 379.884C239.081 381.094 239.64 382.142 240.45 383.027C241.261 383.912 242.216 384.526 243.315 384.888C244.414 385.249 245.532 385.285 246.667 385.014C248.072 384.671 249.297 383.876 250.342 382.612C250.541 382.377 250.775 382.232 251.009 382.178C251.279 382.106 251.532 382.16 251.766 382.305C252 382.449 252.144 382.684 252.216 383.009C252.288 383.316 252.234 383.605 252.054 383.894C250.775 385.538 249.153 386.604 247.153 387.091C245.568 387.453 244.054 387.417 242.577 386.947Z" fill="white" stroke="white" stroke-width="0.5895" stroke-miterlimit="10"/>
<path d="M270.865 378.204C270.973 378.493 270.955 378.782 270.811 379.071C270.667 379.36 270.45 379.559 270.126 379.668C269.91 379.74 269.694 379.758 269.459 379.704C269.225 379.649 269.027 379.541 268.865 379.342L266.667 376.796L259.027 379.451L258.847 382.829C258.829 383.081 258.739 383.28 258.595 383.479C258.45 383.678 258.27 383.786 258.054 383.858C257.748 383.967 257.441 383.948 257.171 383.804C256.901 383.659 256.703 383.443 256.595 383.136C256.54 382.991 256.522 382.829 256.54 382.612L257.604 366.355C257.64 365.795 257.91 365.416 258.396 365.253C258.901 365.073 259.333 365.199 259.694 365.633L270.613 377.753C270.739 377.933 270.829 378.078 270.865 378.204ZM259.153 377.392L265.297 375.242L259.658 368.776L259.153 377.392Z" fill="white" stroke="white" stroke-width="0.5895" stroke-miterlimit="10"/>
<path d="M276.09 376.886C275.784 376.777 275.568 376.579 275.441 376.272L269.099 362.526C268.955 362.219 268.937 361.912 269.063 361.622C269.171 361.333 269.387 361.117 269.676 360.972L273.369 359.256C274.901 358.534 276.432 358.245 277.946 358.371C279.459 358.498 280.829 359.003 282.036 359.888C283.261 360.774 284.216 361.984 284.919 363.519C285.622 365.054 285.928 366.572 285.802 368.089C285.676 369.606 285.189 370.979 284.306 372.207C283.423 373.436 282.198 374.411 280.667 375.134L276.973 376.85C276.685 376.976 276.378 376.994 276.09 376.886ZM279.82 373.255C280.955 372.731 281.838 372.009 282.505 371.069C283.153 370.148 283.514 369.101 283.586 367.945C283.658 366.789 283.423 365.633 282.883 364.458C282.342 363.284 281.622 362.363 280.703 361.677C279.784 360.99 278.757 360.593 277.622 360.485C276.487 360.376 275.369 360.593 274.234 361.117L271.604 362.345L277.189 374.465L279.82 373.255Z" fill="white" stroke="white" stroke-width="0.5895" stroke-miterlimit="10"/>
<path d="M296.27 366.174C294.721 366.229 293.261 365.867 291.928 365.073C290.576 364.296 289.459 363.158 288.576 361.677C287.694 360.196 287.207 358.678 287.153 357.125C287.099 355.571 287.459 354.126 288.234 352.772C289.009 351.417 290.144 350.297 291.621 349.394C293.099 348.509 294.612 348.039 296.18 347.985C297.73 347.931 299.189 348.292 300.54 349.069C301.892 349.845 303.009 350.965 303.892 352.446C304.775 353.928 305.243 355.445 305.297 357.016C305.351 358.57 304.991 360.033 304.234 361.388C303.477 362.742 302.342 363.862 300.847 364.766C299.351 365.651 297.82 366.12 296.27 366.174ZM302.234 360.394C302.793 359.347 303.063 358.227 303.009 357.053C302.955 355.878 302.612 354.722 301.946 353.621C301.279 352.519 300.45 351.67 299.423 351.074C298.396 350.478 297.297 350.189 296.126 350.189C294.955 350.207 293.802 350.55 292.703 351.2C291.603 351.868 290.757 352.717 290.198 353.747C289.639 354.777 289.387 355.897 289.423 357.089C289.459 358.281 289.82 359.419 290.486 360.521C291.153 361.623 291.982 362.471 293.009 363.068C294.036 363.664 295.135 363.953 296.324 363.953C297.513 363.935 298.649 363.609 299.748 362.941C300.847 362.291 301.676 361.442 302.234 360.394Z" fill="white" stroke="white" stroke-width="0.5895" stroke-miterlimit="10"/>
<path d="M322.054 348.473C322.234 348.707 322.306 348.978 322.252 349.249C322.216 349.538 322.054 349.773 321.784 349.99C321.441 350.261 321.045 350.297 320.631 350.152L313.838 347.551L313.513 347.786L311.207 349.52L314.54 353.982C314.739 354.253 314.811 354.524 314.775 354.849C314.739 355.156 314.576 355.409 314.306 355.626C314.036 355.824 313.748 355.896 313.441 355.86C313.135 355.824 312.865 355.662 312.685 355.409L303.621 343.307C303.423 343.036 303.333 342.747 303.387 342.44C303.441 342.132 303.603 341.88 303.856 341.681L307.099 339.242C307.982 338.574 308.919 338.159 309.892 337.996C310.865 337.833 311.802 337.942 312.703 338.321C313.603 338.701 314.36 339.315 315.009 340.164C315.64 341.013 315.982 341.916 316.054 342.909C316.108 343.885 315.892 344.824 315.405 345.727L321.459 348.057C321.694 348.111 321.91 348.274 322.054 348.473ZM312.234 346.07C313.045 345.456 313.549 344.715 313.73 343.867C313.91 343.018 313.73 342.223 313.189 341.482C312.594 340.687 311.856 340.254 310.955 340.146C310.054 340.037 309.189 340.29 308.378 340.904L306.072 342.638L309.928 347.786L312.234 346.07Z" fill="white" stroke="white" stroke-width="0.5895" stroke-miterlimit="10"/>
<path d="M326.522 345.637C326.216 345.619 325.946 345.492 325.711 345.257L315.621 334.004C315.387 333.751 315.297 333.462 315.315 333.155C315.333 332.848 315.477 332.577 315.711 332.36L323.279 325.533C323.531 325.298 323.801 325.189 324.108 325.207C324.414 325.225 324.648 325.352 324.865 325.587C325.081 325.822 325.171 326.074 325.135 326.363C325.099 326.652 324.973 326.905 324.702 327.14L318 333.173L321.621 337.219L326.432 332.884C326.684 332.667 326.955 332.559 327.243 332.559C327.531 332.559 327.783 332.686 328 332.92C328.216 333.155 328.306 333.426 328.27 333.715C328.252 334.004 328.108 334.275 327.856 334.492L323.045 338.827L326.774 342.981L333.477 336.948C333.729 336.714 334 336.605 334.288 336.605C334.576 336.605 334.829 336.732 335.027 336.966C335.243 337.201 335.351 337.472 335.315 337.761C335.297 338.05 335.153 338.303 334.901 338.538L327.333 345.366C327.117 345.546 326.829 345.655 326.522 345.637Z" fill="white" stroke="white" stroke-width="0.5895" stroke-miterlimit="10"/>
<path d="M340.36 331.963C339.063 332.396 337.892 332.415 336.811 332.035C336.631 331.963 336.486 331.891 336.414 331.818C336.252 331.674 336.162 331.475 336.144 331.24C336.126 331.006 336.198 330.753 336.342 330.5C336.36 330.464 336.414 330.391 336.486 330.319C336.649 330.139 336.865 330.03 337.099 329.958C337.351 329.886 337.604 329.904 337.838 329.994C338.45 330.193 339.171 330.139 340 329.813C340.829 329.506 341.585 328.983 342.234 328.278C342.991 327.447 343.459 326.58 343.604 325.659C343.748 324.738 343.513 323.961 342.847 323.365C342.234 322.787 341.477 322.534 340.576 322.606C339.676 322.679 338.739 323.166 337.712 324.069C336.324 325.316 334.919 326.02 333.549 326.201C332.162 326.363 330.973 326.002 329.982 325.081C329.279 324.431 328.865 323.672 328.739 322.805C328.595 321.938 328.721 321.017 329.099 320.077C329.477 319.12 330.072 318.217 330.883 317.35C331.766 316.393 332.685 315.778 333.676 315.471C334.667 315.182 335.712 315.128 336.847 315.327C337.171 315.381 337.441 315.508 337.622 315.67C337.856 315.887 337.964 316.194 337.91 316.555C337.874 316.754 337.784 316.935 337.622 317.097C337.459 317.26 337.279 317.386 337.063 317.44C336.847 317.513 336.631 317.513 336.414 317.458C335.64 317.296 334.937 317.332 334.252 317.531C333.586 317.747 332.937 318.181 332.306 318.867C331.531 319.698 331.063 320.529 330.901 321.36C330.739 322.173 330.973 322.877 331.586 323.437C332.162 323.961 332.847 324.178 333.658 324.069C334.468 323.961 335.477 323.365 336.703 322.281C338.054 321.071 339.405 320.421 340.739 320.294C342.072 320.168 343.279 320.619 344.36 321.631C345.153 322.353 345.622 323.202 345.784 324.16C345.946 325.117 345.838 326.074 345.459 327.05C345.081 328.025 344.522 328.91 343.766 329.741C342.775 330.789 341.64 331.529 340.36 331.963Z" fill="white" stroke="white" stroke-width="0.5895" stroke-miterlimit="10"/>
<path d="M357.243 311.823C356.018 312.419 354.847 312.599 353.73 312.365C353.531 312.328 353.405 312.274 353.297 312.202C353.117 312.076 353.009 311.895 352.955 311.66C352.919 311.425 352.937 311.172 353.063 310.901C353.081 310.865 353.117 310.793 353.171 310.703C353.315 310.504 353.495 310.36 353.73 310.269C353.964 310.179 354.216 310.143 354.468 310.197C355.099 310.305 355.802 310.161 356.594 309.727C357.387 309.312 358.054 308.698 358.594 307.921C359.243 307 359.585 306.061 359.603 305.139C359.622 304.2 359.279 303.478 358.558 302.972C357.856 302.484 357.081 302.34 356.216 302.538C355.351 302.737 354.468 303.351 353.585 304.381C352.378 305.808 351.099 306.693 349.748 307.054C348.396 307.415 347.171 307.199 346.072 306.422C345.297 305.88 344.775 305.175 344.522 304.326C344.27 303.478 344.27 302.556 344.522 301.563C344.775 300.569 345.243 299.594 345.91 298.619C346.649 297.553 347.495 296.812 348.414 296.379C349.333 295.945 350.396 295.765 351.531 295.819C351.874 295.837 352.144 295.909 352.342 296.054C352.613 296.234 352.739 296.523 352.739 296.884C352.721 297.083 352.667 297.264 352.522 297.462C352.396 297.643 352.234 297.788 352.018 297.878C351.82 297.968 351.604 298.004 351.387 297.986C350.613 297.932 349.892 298.059 349.261 298.348C348.631 298.637 348.036 299.179 347.513 299.937C346.865 300.876 346.504 301.762 346.468 302.592C346.414 303.423 346.739 304.074 347.423 304.561C348.054 305.013 348.775 305.121 349.549 304.905C350.342 304.688 351.261 303.965 352.324 302.719C353.495 301.346 354.739 300.515 356.054 300.208C357.351 299.919 358.612 300.19 359.82 301.039C360.703 301.653 361.279 302.43 361.567 303.351C361.856 304.272 361.874 305.248 361.64 306.259C361.387 307.271 360.955 308.228 360.324 309.149C359.495 310.323 358.45 311.227 357.243 311.823Z" fill="white" stroke="white" stroke-width="0.5895" stroke-miterlimit="10"/>
<path d="M368 295.114C366.684 295.945 365.243 296.343 363.693 296.343C362.144 296.343 360.612 295.927 359.099 295.078C357.585 294.247 356.414 293.164 355.603 291.845C354.793 290.526 354.36 289.099 354.36 287.528C354.36 285.956 354.775 284.421 355.621 282.904C356.45 281.386 357.531 280.212 358.847 279.399C360.162 278.569 361.603 278.153 363.153 278.153C364.702 278.135 366.234 278.551 367.748 279.399C369.261 280.23 370.432 281.314 371.243 282.633C372.054 283.951 372.486 285.396 372.504 286.95C372.522 288.503 372.108 290.039 371.261 291.574C370.414 293.109 369.315 294.283 368 295.114ZM370.27 287.112C370.234 285.92 369.892 284.836 369.261 283.825C368.63 282.813 367.747 282.001 366.63 281.386C365.513 280.772 364.36 280.447 363.171 280.447C361.982 280.447 360.883 280.736 359.874 281.35C358.865 281.946 358.054 282.813 357.423 283.951C356.793 285.089 356.504 286.245 356.54 287.419C356.576 288.594 356.901 289.695 357.531 290.689C358.162 291.7 359.045 292.513 360.162 293.127C361.279 293.742 362.432 294.067 363.621 294.067C364.811 294.067 365.91 293.778 366.937 293.164C367.964 292.567 368.775 291.7 369.387 290.581C370 289.461 370.306 288.287 370.27 287.112Z" fill="white" stroke="white" stroke-width="0.5895" stroke-miterlimit="10"/>
<path d="M378.216 274.739C376.973 275.66 375.585 276.22 374.018 276.401C372.468 276.582 370.919 276.365 369.405 275.715C367.892 275.082 366.666 274.161 365.693 272.915C364.72 271.668 364.144 270.296 363.91 268.76C363.693 267.225 363.874 265.708 364.504 264.227C364.937 263.179 365.459 262.312 366.054 261.662C366.648 261.011 367.423 260.415 368.378 259.891C368.576 259.783 368.738 259.711 368.901 259.711C369.063 259.711 369.225 259.747 369.405 259.819C369.675 259.927 369.874 260.126 369.964 260.397C370.054 260.668 370.054 260.939 369.946 261.21C369.838 261.481 369.639 261.68 369.369 261.824C368.648 262.185 368.072 262.601 367.639 263.052C367.207 263.504 366.811 264.154 366.45 265.021C366 266.105 365.874 267.225 366.054 268.363C366.234 269.501 366.702 270.549 367.459 271.488C368.216 272.427 369.153 273.132 370.288 273.601C371.441 274.089 372.612 274.252 373.784 274.125C374.973 273.999 376.036 273.583 376.973 272.915C377.91 272.247 378.612 271.361 379.063 270.278C379.621 268.941 379.693 267.478 379.297 265.87C379.225 265.563 379.243 265.31 379.333 265.075C379.441 264.805 379.621 264.624 379.874 264.534C380.126 264.443 380.414 264.443 380.72 264.57C381.009 264.696 381.225 264.913 381.351 265.22C381.928 267.225 381.82 269.176 381.027 271.072C380.378 272.608 379.459 273.8 378.216 274.739Z" fill="white" stroke="white" stroke-width="0.5895" stroke-miterlimit="10"/>
<path d="M384.703 259.458C384.414 259.602 384.126 259.62 383.82 259.512L369.477 254.78C369.153 254.671 368.919 254.472 368.793 254.201C368.667 253.912 368.649 253.623 368.739 253.298C368.847 252.973 369.045 252.738 369.315 252.594C369.586 252.449 369.892 252.431 370.216 252.54L384.558 257.272C384.865 257.381 385.099 257.561 385.243 257.85C385.387 258.121 385.405 258.428 385.297 258.753C385.189 259.079 384.991 259.313 384.703 259.458Z" fill="white" stroke="white" stroke-width="0.5895" stroke-miterlimit="10"/>
<path d="M389.82 238.071C390.126 238.143 390.36 238.324 390.522 238.595C390.685 238.866 390.721 239.173 390.649 239.48C390.595 239.697 390.486 239.896 390.306 240.058C390.126 240.221 389.928 240.329 389.694 240.365L386.36 240.817L384.378 248.674L387.099 250.697C387.297 250.86 387.423 251.04 387.495 251.257C387.568 251.474 387.586 251.691 387.531 251.907C387.459 252.233 387.279 252.467 386.991 252.63C386.721 252.793 386.432 252.829 386.126 252.738C385.982 252.702 385.82 252.63 385.658 252.504L372.703 242.677C372.252 242.334 372.09 241.901 372.216 241.413C372.342 240.889 372.685 240.6 373.243 240.528L389.351 238.053C389.531 238.035 389.694 238.053 389.82 238.071ZM382.703 247.446L384.288 241.124L375.802 242.298L382.703 247.446Z" fill="white" stroke="white" stroke-width="0.5895" stroke-miterlimit="10"/>
<path d="M391.441 233.248C391.189 233.429 390.883 233.501 390.576 233.429L375.712 230.774C375.369 230.72 375.117 230.557 374.955 230.286C374.775 230.033 374.721 229.726 374.793 229.401C374.847 229.058 375.009 228.805 375.261 228.624C375.513 228.444 375.802 228.389 376.144 228.444L391.009 231.099C391.333 231.153 391.585 231.316 391.766 231.568C391.946 231.821 392 232.128 391.946 232.454C391.856 232.815 391.694 233.068 391.441 233.248Z" fill="white" stroke="white" stroke-width="0.5895" stroke-miterlimit="10"/>
<path d="M392.63 223.043C391.856 224.163 390.919 224.885 389.82 225.228C389.639 225.283 389.477 225.301 389.369 225.301C389.153 225.283 388.955 225.174 388.811 224.993C388.666 224.813 388.576 224.578 388.54 224.289C388.54 224.235 388.54 224.163 388.54 224.054C388.558 223.819 388.666 223.603 388.829 223.386C388.991 223.169 389.207 223.043 389.441 222.97C390.054 222.772 390.594 222.284 391.081 221.543C391.567 220.785 391.856 219.936 391.964 218.979C392.09 217.859 391.928 216.883 391.513 216.052C391.081 215.221 390.432 214.752 389.549 214.661C388.702 214.571 387.946 214.824 387.279 215.42C386.612 216.016 386.144 216.974 385.856 218.31C385.477 220.153 384.793 221.543 383.784 222.519C382.775 223.476 381.603 223.892 380.252 223.747C379.297 223.639 378.522 223.278 377.892 222.663C377.261 222.049 376.811 221.236 376.558 220.243C376.306 219.249 376.234 218.166 376.36 216.992C376.504 215.709 376.883 214.643 377.477 213.831C378.09 213 378.901 212.331 379.928 211.826C380.234 211.681 380.504 211.609 380.757 211.645C381.081 211.681 381.333 211.862 381.513 212.187C381.603 212.367 381.621 212.566 381.603 212.783C381.585 213 381.495 213.216 381.369 213.397C381.243 213.578 381.063 213.704 380.865 213.794C380.162 214.12 379.585 214.571 379.189 215.149C378.775 215.709 378.522 216.468 378.414 217.389C378.288 218.527 378.414 219.466 378.775 220.225C379.135 220.983 379.729 221.399 380.558 221.489C381.333 221.58 382 221.327 382.594 220.749C383.189 220.171 383.639 219.087 383.982 217.497C384.36 215.727 385.045 214.39 386.036 213.505C387.045 212.62 388.27 212.241 389.729 212.404C390.793 212.512 391.675 212.909 392.378 213.578C393.081 214.246 393.567 215.077 393.838 216.088C394.108 217.1 394.18 218.148 394.072 219.249C393.874 220.622 393.405 221.923 392.63 223.043Z" fill="white" stroke="white" stroke-width="0.5895" stroke-miterlimit="10"/>
<path d="M7.99976 183.123C16.7745 84.9506 99.0448 8.02 199.243 8.02C299.549 8.02 381.892 85.1312 390.504 183.448" stroke="white" stroke-width="4.7157" stroke-miterlimit="10" stroke-linecap="round" stroke-linejoin="round"/>
<path d="M390.541 202.722C392.929 202.722 394.865 200.781 394.865 198.387C394.865 195.992 392.929 194.051 390.541 194.051C388.152 194.051 386.216 195.992 386.216 198.387C386.216 200.781 388.152 202.722 390.541 202.722Z" stroke="white" stroke-width="1.1789" stroke-miterlimit="10"/>
<path d="M7.98204 202.722C10.3703 202.722 12.3064 200.781 12.3064 198.387C12.3064 195.992 10.3703 194.051 7.98204 194.051C5.59378 194.051 3.65771 195.992 3.65771 198.387C3.65771 200.781 5.59378 202.722 7.98204 202.722Z" stroke="white" stroke-width="1.1789" stroke-miterlimit="10"/>
</svg>
